<!--?xml version="1.0" standalone="no"?-->
              <svg id="sw-js-blob-svg" viewBox="0 0 100 100" xmlns="http://www.w3.org/2000/svg" version="1.1">
                    <defs> 
                        <linearGradient id="sw-gradient" x1="0" x2="1" y1="1" y2="0">
                            <stop id="stop1" stop-color="rgba(248, 117, 55, 1)" offset="0%"></stop>
                            <stop id="stop2" stop-color="rgba(251, 168, 31, 1)" offset="100%"></stop>
                        </linearGradient>
                    </defs>
                <path fill="url(#sw-gradient)" d="M18.1,-26.9C23.8,-20.8,29.1,-16,32.4,-9.6C35.7,-3.2,37.2,4.6,34.7,11C32.3,17.4,26,22.2,19.5,25.1C13.1,27.9,6.6,28.8,-0.7,29.7C-8,30.7,-15.9,31.8,-22.7,29.1C-29.4,26.3,-35,19.7,-38.7,11.8C-42.4,3.8,-44.2,-5.6,-41.5,-13.3C-38.7,-21,-31.4,-27,-23.7,-32.5C-16,-38,-8,-43,-0.9,-41.7C6.2,-40.5,12.4,-33.1,18.1,-26.9Z" width="100%" height="100%" transform="translate(50 50)" stroke-width="0" style="transition: all 0.3s ease 0s;" stroke="url(#sw-gradient)"></path>
              </svg>