<!--?xml version="1.0" standalone="no"?-->
              <svg id="sw-js-blob-svg" viewBox="0 0 100 100" xmlns="http://www.w3.org/2000/svg" version="1.1">
                    <defs> 
                        <linearGradient id="sw-gradient" x1="0" x2="1" y1="1" y2="0">
                            <stop id="stop1" stop-color="rgba(36, 146, 152, 1)" offset="0%"></stop>
                            <stop id="stop2" stop-color="rgba(36, 146, 152, 1)" offset="100%"></stop>
                        </linearGradient>
                    </defs>
                <path fill="url(#sw-gradient)" d="M25.5,-30.6C32.6,-24.4,37.7,-16,40.1,-6.4C42.5,3.1,42.4,13.7,37.9,22.4C33.5,31,24.8,37.6,15.6,39.6C6.4,41.5,-3.3,38.7,-13,35.3C-22.7,32,-32.4,28.2,-38.4,20.7C-44.3,13.3,-46.6,2.4,-43.7,-6.6C-40.8,-15.5,-32.7,-22.5,-24.6,-28.5C-16.5,-34.4,-8.2,-39.4,0.5,-40C9.2,-40.6,18.4,-36.7,25.5,-30.6Z" width="100%" height="100%" transform="translate(50 50)" stroke-width="0" style="transition: all 0.3s ease 0s;" stroke="url(#sw-gradient)"></path>
              </svg>