<?xml version="1.0" encoding="utf-8"?>
<!-- Generator: Adobe Illustrator 27.5.0, SVG Export Plug-In . SVG Version: 6.00 Build 0)  -->
<svg version="1.1" xmlns="http://www.w3.org/2000/svg" xmlns:xlink="http://www.w3.org/1999/xlink" x="0px" y="0px"
	 viewBox="0 0 3710 3710" style="enable-background:new 0 0 3710 3710;" xml:space="preserve">
<g id="Background">
	<g>
		<g>
			<rect style="fill:#FFFFFF;" width="3710" height="3710"/>
		</g>
	</g>
</g>
<g id="Illustration">
	<g>
		<path style="fill:#F4F7FA;" d="M2929.303,2849.158c-74.738,77.037-141.61,122.322-192.811,156.509
			c-499.344,333.417-1070.15,237.318-1246.629,204.472c-284.727-52.993-525.076-90.378-731.579-276.945
			c-469.236-423.937-446.414-1308.3-87.86-1856.124c42.514-64.956,400.525-595.64,972.566-670.417
			c13.991-1.829,24.43-2.871,33.574-3.839c88.493-9.369,636.869-58.819,1084.015,315.8
			c64.007,53.625,167.012,150.35,262.532,297.873C3372.375,1555.892,3373.481,2391.316,2929.303,2849.158z"/>
		<g>
			<g>
				<g>
					<defs>
						<path id="SVGID_1_" d="M1695.876,3013.648c81.566-105.095,190.117-279.422,183.431-491.493
							c-11.664-369.976-360.931-438.412-483.791-894.532c-99.093-367.879,75.841-517.414-92.306-817.274
							c-28.145-50.191-173.65-321.32-390.248-322.708c-122.055-0.784-212.488,84.296-229.464,100.268
							c-256.578,241.393-206.271,864.018,70.182,1285.984c158.834,242.436,252.617,242.073,571,596.895
							C1511.767,2679.285,1628.137,2880.347,1695.876,3013.648z"/>
					</defs>
					
						<linearGradient id="SVGID_00000090276693756789286180000010462275104112118941_" gradientUnits="userSpaceOnUse" x1="516.1641" y1="1750.6418" x2="1879.6022" y2="1750.6418">
						<stop  offset="0" style="stop-color:#FF9085"/>
						<stop  offset="1" style="stop-color:#FB6FBB"/>
					</linearGradient>
					
						<use xlink:href="#SVGID_1_"  style="overflow:visible;fill:url(#SVGID_00000090276693756789286180000010462275104112118941_);"/>
					<clipPath id="SVGID_00000158721802086896470280000009251048313038096059_">
						<use xlink:href="#SVGID_1_"  style="overflow:visible;"/>
					</clipPath>
					<g style="clip-path:url(#SVGID_00000158721802086896470280000009251048313038096059_);">
						<path style="fill:#FFFFFF;" d="M1658.444,3171.935l-3.388-1.016c91.553-305.792,83.104-548.984-25.113-722.823
							c-52.844-84.888-110.1-124.807-170.717-167.07c-65.949-45.981-134.143-93.527-198.745-203.592
							c-62.843-107.071-66.883-179.461-71.997-271.111c-4.558-81.692-10.232-183.361-60.617-341.929
							c-44.169-139.003-88.886-217.098-128.34-286.001c-43.063-75.201-77.077-134.603-94.332-244.537
							c-28.13-179.231,9.273-369.151,111.171-564.491l3.135,1.634c-101.54,194.653-138.825,383.842-110.813,562.308
							c17.154,109.292,51.025,168.443,93.906,243.329c39.542,69.057,84.361,147.323,128.642,286.687
							c50.52,158.994,56.206,260.913,60.776,342.804c5.089,91.169,9.106,163.181,71.516,269.515
							c64.211,109.399,132.08,156.718,197.717,202.483c60.924,42.476,118.47,82.598,171.699,168.103
							C1741.722,2620.964,1750.301,2865.126,1658.444,3171.935z"/>
						<path style="fill:#FFFFFF;" d="M1019.54,1210.312l-2.116-1.064c-215.845-108.472-330.209-274.131-388.14-393.999
							c-62.771-129.883-74.657-235.554-74.769-236.604l3.515-0.378c0.113,1.047,11.959,106.217,74.499,235.568
							c57.509,118.948,170.829,283.179,384.386,391.198c3.228-16.867,24.471-122.689,69.431-235.901
							c45.119-113.614,124.048-258.129,243.842-301.409l1.201,3.323c-118.541,42.83-196.886,186.422-241.736,299.336
							c-48.684,122.572-69.491,236.464-69.696,237.6L1019.54,1210.312z"/>
						<path style="fill:#FFFFFF;" d="M1173.354,1634.263l-1.515-0.113c-1.227-0.096-124.398-10.115-278.698-75.383
							c-142.413-60.239-341.284-181.208-479.952-415.414l3.045-1.799c138.147,233.327,336.277,353.867,478.16,413.903
							c144.576,61.173,261.672,73.674,276.205,75.033c12.322-52.811,33.418-111.249,62.712-173.722
							c23.644-50.422,52.657-103.577,86.228-157.991c57.155-92.631,108.422-157.665,108.933-158.314l2.773,2.197
							c-0.51,0.642-51.672,65.546-108.721,158.016c-52.623,85.289-121.16,212.145-148.829,332.109L1173.354,1634.263z"/>
						<path style="fill:#FFFFFF;" d="M1333.189,2242.435c-34.81,0-81.594-2.104-137.632-9.621
							c-116.655-15.655-298.45-58.657-502.057-174.618l1.751-3.075c203.046,115.646,384.312,158.544,500.622,174.169
							c115.407,15.501,191.403,7.956,203.991,6.487c-26.289-140.036,22.882-280.495,68.891-373.843
							c50.031-101.514,107.219-170.74,107.79-171.426l2.719,2.259c-0.57,0.687-57.529,69.647-107.375,170.805
							c-45.95,93.256-95.083,233.735-68.197,373.397l0.352,1.83l-1.845,0.254
							C1401.758,2239.112,1376.933,2242.435,1333.189,2242.435z"/>
					</g>
				</g>
			</g>
			<g>
				<g>
					<defs>
						<path id="SVGID_00000151532777469753885800000017820585374498462368_" d="M1718.16,2962.218
							c11.491-81.788,16.145-209.196-52.923-321.361c-120.495-195.682-329.749-124.724-536.732-332.479
							c-166.941-167.563-118.877-302.11-302.014-411.717c-30.654-18.346-192.727-119.468-309.823-53.351
							c-65.985,37.256-88.431,111-92.644,124.844c-63.684,209.229,155.62,529.068,434.79,671.012
							c160.395,81.552,210.797,52.405,491.825,145.239C1515.772,2838.953,1640.522,2911.329,1718.16,2962.218z"/>
					</defs>
					
						<linearGradient id="SVGID_00000117646461074915702280000011239849960446085785_" gradientUnits="userSpaceOnUse" x1="412.9336" y1="2391.6824" x2="1724.9008" y2="2391.6824">
						<stop  offset="0" style="stop-color:#AA80F9"/>
						<stop  offset="0.9964" style="stop-color:#6165D7"/>
					</linearGradient>
					
						<use xlink:href="#SVGID_00000151532777469753885800000017820585374498462368_"  style="overflow:visible;fill:url(#SVGID_00000117646461074915702280000011239849960446085785_);"/>
					<clipPath id="SVGID_00000122708649708349992230000013262715556764396445_">
						<use xlink:href="#SVGID_00000151532777469753885800000017820585374498462368_"  style="overflow:visible;"/>
					</clipPath>
					<g style="clip-path:url(#SVGID_00000122708649708349992230000013262715556764396445_);">
						<path style="fill:#FFFFFF;" d="M1744.07,3059.684c-45.04-192.776-124.551-321.011-236.328-381.144
							c-54.548-29.347-97.646-33.167-143.273-37.214c-49.789-4.414-101.272-8.983-170.175-48.397
							c-67.042-38.351-91.605-76.155-122.701-124.017c-27.653-42.566-62.069-95.535-138.097-165.337
							c-66.648-61.187-114.81-89.429-157.302-114.345c-46.47-27.247-83.176-48.771-126.485-102.757
							c-70.571-87.966-109.103-201.947-114.526-338.767l3.532-0.137c5.394,136.048,43.666,249.328,113.754,336.694
							c42.9,53.477,79.358,74.854,125.514,101.919c42.645,25.005,90.98,53.347,157.906,114.791
							c76.358,70.101,110.909,123.279,138.67,166.013c30.835,47.46,55.192,84.946,121.493,122.874
							c68.228,39.03,119.32,43.561,168.73,47.944c46,4.078,89.448,7.932,144.636,37.619
							c112.709,60.634,192.817,189.649,238.096,383.458L1744.07,3059.684z"/>
						<path style="fill:#FFFFFF;" d="M765.375,2201.249c-134.881,0-237.143-49.818-300.752-93.355
							c-74.001-50.646-113.092-103.986-113.478-104.521l2.863-2.073c0.384,0.529,39.191,53.457,112.73,103.756
							c67.466,46.153,178.742,99.362,326.464,91.951c-8.923-26.31-90.022-275.985,3.278-385.932l2.698,2.286
							c-96.745,114.008-2.835,381.999-1.876,384.694l0.795,2.231l-2.363,0.127C785.448,2200.978,775.31,2201.249,765.375,2201.249z"
							/>
						<path style="fill:#FFFFFF;" d="M757.487,2431.813c-87.96,0-197.223-17.68-307.925-80.449l1.744-3.075
							c146.265,82.931,290.024,86.693,384.867,75.26c94.86-11.444,161.029-39.954,171.256-44.56
							c-41.903-140.606-12.527-341.266-12.225-343.281l3.498,0.522c-0.302,2.018-29.763,203.31,12.556,343.212l0.441,1.456
							l-1.373,0.652c-0.69,0.33-70.228,33.003-173.595,45.493C813.099,2429.897,786.445,2431.813,757.487,2431.813z"/>
						<path style="fill:#FFFFFF;" d="M883.293,2757.685l-0.01-3.536c144.933-0.391,255.706-33.205,323.112-60.661
							c65.122-26.526,103.4-53.288,111.213-58.993c-109.653-129.348-73.226-346.061-72.843-348.244l3.484,0.611
							c-0.381,2.173-36.787,218.876,73.272,346.769l1.215,1.411l-1.474,1.139C1319.701,2637.388,1161.934,2756.933,883.293,2757.685
							z"/>
					</g>
				</g>
			</g>
		</g>
		<g>
			<g>
				<defs>
					<path id="SVGID_00000065074209747152795210000017180688296815807133_" d="M2208.972,2599.09
						c-75.225-86.319-50.496-258.37-0.746-365.751c58.084-125.37,126.963-112.273,164.549-213.291
						c69.981-188.081-140.09-310.609-84.56-505.876c45.396-159.631,203.014-138.317,245.242-317.381
						c30.472-129.211-36.952-202.414,26.634-306.14c5.436-8.867,65.43-103.655,159.518-106.29
						c94.964-2.659,169.119,90.117,200.445,157.923c57.905,125.337-21.892,184.052-7.772,357.821
						c19.225,236.58,178.515,267.787,156.664,444.913c-18.044,146.265-130.824,158.722-147.609,321.294
						c-15.586,150.964,75.999,195.08,55.781,295.638C2930.609,2593.284,2362.409,2775.156,2208.972,2599.09z"/>
				</defs>
				
					<linearGradient id="SVGID_00000064313126205955053470000012563641274343879843_" gradientUnits="userSpaceOnUse" x1="2323.8228" y1="947.6429" x2="2606.0623" y2="1940.3461">
					<stop  offset="0" style="stop-color:#FF9085"/>
					<stop  offset="1" style="stop-color:#FB6FBB"/>
				</linearGradient>
				
					<use xlink:href="#SVGID_00000065074209747152795210000017180688296815807133_"  style="overflow:visible;fill:url(#SVGID_00000064313126205955053470000012563641274343879843_);"/>
				<clipPath id="SVGID_00000052782838108390758100000007796862101581613731_">
					<use xlink:href="#SVGID_00000065074209747152795210000017180688296815807133_"  style="overflow:visible;"/>
				</clipPath>
				<g style="clip-path:url(#SVGID_00000052782838108390758100000007796862101581613731_);">
					<path style="opacity:0.7;fill:#FFFFFF;" d="M2314.535,2737.474c-0.848,0-1.627-0.549-1.884-1.401
						c-0.309-1.04,0.278-2.135,1.318-2.447c96.778-29.086,183.22-77.14,256.928-142.827c69.819-62.22,142-126.547,161.112-223.5
						c14.451-73.289-10.064-120.674-41.1-180.666c-30.247-58.468-67.89-131.236-77.381-251.511
						c-5.416-68.68-12.161-154.151,31.218-244.427c25.277-52.605,54.524-78.603,80.329-101.545
						c26.972-23.979,48.277-42.919,55.022-84.102c11.008-67.245-14.234-118.536-43.465-177.931
						c-18.065-36.713-36.748-74.676-49.942-121.46c-37.142-131.678-1.095-287.593,107.144-463.416
						c0.566-0.92,1.785-1.208,2.705-0.645c0.927,0.57,1.215,1.781,0.646,2.705c-107.641,174.852-143.541,329.713-106.711,460.289
						c13.098,46.438,31.698,84.239,49.688,120.794c29.529,59.996,55.029,111.815,43.815,180.299
						c-6.968,42.559-29.824,62.879-56.288,86.405c-25.531,22.695-54.462,48.418-79.399,100.309
						c-42.919,89.319-36.222,174.206-30.84,242.412c9.425,119.486,46.87,191.863,76.955,250.018
						c31.39,60.672,56.182,108.595,41.464,183.234c-19.369,98.247-92.051,163.02-162.34,225.662
						c-74.151,66.084-161.094,114.417-258.425,143.664C2314.913,2737.447,2314.72,2737.474,2314.535,2737.474z"/>
					<path style="opacity:0.7;fill:#FFFFFF;" d="M2629.114,1737.239c-0.628,0-1.242-0.299-1.624-0.851
						c-113.754-165.412-152.64-302.758-165.23-388.843c-13.661-93.434-0.151-148.528-0.014-149.074
						c0.264-1.047,1.332-1.689,2.385-1.421c1.054,0.264,1.692,1.335,1.425,2.386c-0.134,0.542-13.469,55.063,0.134,147.811
						c12.559,85.619,51.301,222.25,164.541,386.911c0.615,0.896,0.388,2.121-0.505,2.736
						C2629.883,1737.126,2629.495,1737.239,2629.114,1737.239z"/>
					<path style="opacity:0.7;fill:#FFFFFF;" d="M2630.563,2033.424c-0.731,0-1.435-0.412-1.775-1.119
						c-0.467-0.978-0.051-2.152,0.927-2.622c217.451-103.941,305.202-257.515,340.525-368.046
						c38.289-119.819,24.971-216.326,24.83-217.287c-0.154-1.074,0.59-2.07,1.665-2.228c1.057-0.175,2.07,0.587,2.228,1.665
						c0.141,0.968,13.589,98.223-24.923,218.869c-35.536,111.328-123.828,265.99-342.629,370.576
						C2631.136,2033.362,2630.848,2033.424,2630.563,2033.424z"/>
					<path style="opacity:0.7;fill:#FFFFFF;" d="M2650.131,2526.97c-0.333,0-0.669-0.086-0.982-0.264
						c-199.232-115.268-283.306-257.107-318.75-355.796c-38.44-107.023-29.564-187.922-29.471-188.729
						c0.127-1.074,1.14-1.826,2.18-1.723c1.081,0.127,1.85,1.102,1.727,2.18c-0.093,0.8-8.852,80.95,29.34,187.15
						c35.244,98.01,118.841,238.901,316.944,353.513c0.94,0.546,1.26,1.747,0.717,2.688
						C2651.473,2526.616,2650.811,2526.97,2650.131,2526.97z"/>
					<path style="opacity:0.7;fill:#FFFFFF;" d="M2686.738,1183.663c-0.638,0-1.263-0.309-1.641-0.879
						c-0.601-0.903-0.354-2.125,0.549-2.725c152.458-101.356,200.427-234.116,213.823-327.636
						c14.526-101.432-7.321-179.918-7.544-180.697c-0.295-1.043,0.309-2.132,1.352-2.43c1.057-0.302,2.132,0.309,2.43,1.352
						c0.223,0.786,22.283,79.945,7.675,182.17c-13.483,94.368-61.825,228.312-215.56,330.516
						C2687.49,1183.557,2687.109,1183.663,2686.738,1183.663z"/>
				</g>
			</g>
		</g>
		<g>
			<g>
				<defs>
					<path id="SVGID_00000111188742431184772280000002369866195326845063_" d="M2362.306,2690.248
						c-39.644-86.166,20.167-217.145,84.772-290.883c75.428-86.091,127.118-59.605,180.57-131.124
						c99.52-133.158-38.852-279.577,50.86-421.82c73.34-116.284,193.644-62.555,269.001-195.024
						c54.377-95.589,17.872-169.508,92.622-237.112c6.39-5.779,76.198-67.117,151.597-47.251
						c76.101,20.051,113.387,111.1,122.46,172.305c16.771,113.136-60.357,141.18-89.692,282.591
						c-39.937,192.527,79.387,254.509,20.679,390.194c-48.479,112.044-141.028,95.623-192.313,220.922
						c-47.623,116.352,14.874,172.793-24.665,248C2937.237,2854.061,2443.168,2866.001,2362.306,2690.248z"/>
				</defs>
				
					<linearGradient id="SVGID_00000162345502221199730350000016325489719627620794_" gradientUnits="userSpaceOnUse" x1="3170.7888" y1="2212.6277" x2="3659.3472" y2="2412.9722">
					<stop  offset="0.0036" style="stop-color:#E38DDD"/>
					<stop  offset="1" style="stop-color:#9571F6"/>
				</linearGradient>
				
					<use xlink:href="#SVGID_00000111188742431184772280000002369866195326845063_"  style="overflow:visible;fill:url(#SVGID_00000162345502221199730350000016325489719627620794_);"/>
				<clipPath id="SVGID_00000088841055096627866590000005310505079573456284_">
					<use xlink:href="#SVGID_00000111188742431184772280000002369866195326845063_"  style="overflow:visible;"/>
				</clipPath>
				<g style="clip-path:url(#SVGID_00000088841055096627866590000005310505079573456284_);">
					<path style="opacity:0.7;fill:#FFFFFF;" d="M2414.371,2825.279c-1.081,0-1.96-0.872-1.967-1.953
						c-0.007-1.088,0.868-1.974,1.953-1.981c83.662-0.529,163.535-18.535,237.408-53.522
						c69.96-33.13,142.295-67.389,180.065-139.889c28.537-54.775,20.121-98.109,9.467-152.973
						c-10.4-53.56-23.347-120.221-2.804-218.1c11.732-55.89,26.33-125.449,81.946-187.147c32.413-35.965,61.76-49.818,87.654-62.045
						c26.976-12.734,48.281-22.791,63.201-53.845c24.398-50.779,16.314-97.392,6.954-151.363
						c-5.794-33.415-11.787-67.962-11.354-108.256c1.215-113.432,66.294-229.026,193.435-343.576
						c0.803-0.724,2.046-0.669,2.777,0.144c0.724,0.807,0.659,2.049-0.147,2.777c-126.29,113.782-190.933,228.411-192.131,340.697
						c-0.429,39.933,5.53,74.302,11.296,107.542c9.473,54.637,17.656,101.823-7.287,153.739
						c-15.521,32.31-38.481,43.149-65.065,55.698c-25.558,12.065-54.528,25.743-86.415,61.118
						c-54.902,60.916-69.38,129.897-81.012,185.327c-20.382,97.1-7.521,163.329,2.815,216.542
						c10.802,55.616,19.331,99.544-9.841,155.541c-38.382,73.67-111.324,108.214-181.864,141.622
						c-74.398,35.234-154.833,53.367-239.069,53.903C2414.378,2825.279,2414.375,2825.279,2414.371,2825.279z"/>
					<path style="opacity:0.7;fill:#FFFFFF;" d="M2897.857,2103.686c-0.827,0-1.596-0.525-1.867-1.356
						c-51.83-158.084-50.68-276.38-40.589-347.778c10.957-77.518,34.589-118.21,34.825-118.611c0.556-0.934,1.768-1.239,2.691-0.693
						c0.934,0.553,1.246,1.757,0.693,2.691c-0.937,1.589-92.518,162.333,6.113,463.169c0.34,1.03-0.223,2.142-1.256,2.478
						C2898.265,2103.655,2898.059,2103.686,2897.857,2103.686z"/>
					<path style="opacity:0.7;fill:#FFFFFF;" d="M2829.881,2339.446c-0.947,0-1.781-0.687-1.936-1.654
						c-0.175-1.071,0.553-2.08,1.627-2.252c196.956-31.846,302.476-133.347,356.311-212.89
						c58.369-86.24,70.303-165.999,70.416-166.796c0.155-1.078,1.116-1.833,2.224-1.668c1.074,0.154,1.823,1.15,1.668,2.224
						c-0.113,0.803-12.134,81.318-70.948,168.289c-54.267,80.247-160.607,182.636-359.046,214.719
						C2830.09,2339.436,2829.987,2339.446,2829.881,2339.446z"/>
					<path style="opacity:0.7;fill:#FFFFFF;" d="M2730.244,2736.293c-0.518,0-1.037-0.206-1.425-0.611
						c-131.521-138.193-165.258-270.634-170.4-357.406c-5.578-94.114,20.385-156.416,20.649-157.034
						c0.426-0.999,1.579-1.462,2.578-1.04c0.999,0.426,1.466,1.579,1.04,2.578c-0.261,0.611-25.905,62.23-20.33,155.486
						c5.142,86.062,38.69,217.458,169.312,354.704c0.748,0.786,0.717,2.032-0.069,2.78
						C2731.219,2736.112,2730.731,2736.293,2730.244,2736.293z"/>
					<path style="opacity:0.7;fill:#FFFFFF;" d="M3072.863,1677.141c-0.837,0-1.617-0.542-1.877-1.383
						c-0.323-1.037,0.257-2.138,1.294-2.461c144.701-44.937,213.751-139.168,246.198-210.302
						c35.199-77.168,36.157-144.602,36.161-145.274c0.01-1.078,0.889-1.95,1.967-1.95c0.003,0,0.01,0,0.017,0
						c1.085,0.01,1.957,0.896,1.95,1.984c-0.007,0.676-0.951,68.813-36.449,146.719c-32.77,71.923-102.513,167.184-248.677,212.578
						C3073.251,1677.113,3073.055,1677.141,3072.863,1677.141z"/>
				</g>
			</g>
		</g>
		<g>
			<g>
				
					<linearGradient id="SVGID_00000144312750471458927990000002305600941324019878_" gradientUnits="userSpaceOnUse" x1="2036.6608" y1="1284.8112" x2="2679.0278" y2="2945.6682">
					<stop  offset="0" style="stop-color:#311944"/>
					<stop  offset="1" style="stop-color:#893976"/>
				</linearGradient>
				<path style="fill:url(#SVGID_00000144312750471458927990000002305600941324019878_);" d="M2492.194,2644.269
					c-109.397,4.051-198.685-79.424-198.685-186.475V1200.24l291.637,2.132c16.385,0.12,32.102-6.49,43.476-18.285l11.999-12.442
					l-739.611-785.199v1124.455c0,11.819-10.023,21.364-22.397,21.319h-0.004c-8.917-0.033-16.874-5.163-20.546-12.946
					c-20.835-44.153-68.333-74.629-123.124-72.604c-66.943,2.474-121.274,54.488-123.367,118.29
					c-2.289,69.799,56.674,126.968,129.414,126.844c52.207-0.089,96.99-29.694,117.063-72.105
					c3.68-7.776,11.634-12.888,20.564-12.878h0c12.374,0.014,22.397,9.607,22.397,21.426v942.671
					c0,222.2,187.195,460.802,414.893,449.502l918.278-357.005l-9.971-15.223c-12.314-18.802-33.572-29.786-56.032-28.954
					L2492.194,2644.269z"/>
				
					<linearGradient id="SVGID_00000131331000736536625590000011793266477708585615_" gradientUnits="userSpaceOnUse" x1="2506.4478" y1="1815.0883" x2="3116.0073" y2="3391.1206" gradientTransform="matrix(-1 0 0 1 4062.8872 0)">
					<stop  offset="0" style="stop-color:#311944"/>
					<stop  offset="1" style="stop-color:#893976"/>
				</linearGradient>
				<path style="fill:url(#SVGID_00000131331000736536625590000011793266477708585615_);" d="M1286.645,2688.913
					c117.727-4.36,212.496-96.999,212.496-206.947V1194.433l-300.984-2.201c-15.603-0.114-23.521-18.819-12.742-30.101
					l274.032-286.826l442.797,867.438c0,237.708,10.016,247.145,22.362,246.969l0.004,0c8.884-0.127,16.803-5.328,20.454-13.125
					c20.685-44.166,67.625-74.734,121.404-72.988c65.178,2.117,117.653,52.877,119.666,115.44
					c2.203,68.425-54.73,125.711-125.583,127.104c-51.275,1.008-95.545-27.524-115.474-69.425
					c-3.659-7.695-11.575-12.669-20.473-12.52l0,0c-12.346,0.207-22.362,9.957-22.362,21.775v484.902
					c0,222.191-1161.384,574.711-1398.579,586.484l-17.301-26.414c-8.164-12.464-12.512-27.041-12.512-41.941v-323.979
					c0-25.683,20.316-46.765,45.982-47.716L1286.645,2688.913z"/>
				
					<linearGradient id="SVGID_00000098187819673739016530000010452972954597486735_" gradientUnits="userSpaceOnUse" x1="1831.7599" y1="1616.2329" x2="2496.6953" y2="3335.4407">
					<stop  offset="0" style="stop-color:#311944"/>
					<stop  offset="1" style="stop-color:#893976"/>
				</linearGradient>
				<path style="fill:url(#SVGID_00000098187819673739016530000010452972954597486735_);" d="M1858.047,1619.699
					c3.68-7.776,11.634-12.888,20.565-12.878c12.374,0.014,22.397,9.607,22.397,21.425v210.312
					c17.088-14.607,32.288-31.29,45.244-49.575c56.08-79.138,73.053-182.971,52.304-275.643
					c-10.149-45.328-29.931-89.298-60.894-125.466c-10.986-12.834-23.294-24.396-36.653-34.638v157.665
					c0,11.82-10.023,21.365-22.397,21.319h-0.005c-8.918-0.032-16.873-5.164-20.547-12.946
					c-20.834-44.153-68.333-74.63-123.123-72.604c-66.943,2.474-121.274,54.488-123.367,118.288
					c-2.288,69.8,56.673,126.97,129.414,126.846C1793.191,1691.716,1837.974,1662.11,1858.047,1619.699z"/>
			</g>
			<g>
				
					<linearGradient id="SVGID_00000173878239920746705280000012134113060746435512_" gradientUnits="userSpaceOnUse" x1="3615.0076" y1="3099.9224" x2="115.6098" y2="-45.7229">
					<stop  offset="0" style="stop-color:#AA80F9"/>
					<stop  offset="0.9964" style="stop-color:#6165D7"/>
				</linearGradient>
				<path style="fill:url(#SVGID_00000173878239920746705280000012134113060746435512_);" d="M2522.007,2689.787
					c-109.397,4.051-198.685-79.424-198.685-186.475V1169.326l317.299,2.32l-709.798-823.233v1131.574
					c0,11.819-10.023,21.364-22.397,21.319h-0.004c-8.917-0.033-16.874-5.163-20.546-12.945
					c-20.835-44.154-68.333-74.629-123.124-72.604c-66.943,2.474-121.274,54.489-123.366,118.29
					c-2.29,69.799,56.673,126.969,129.414,126.845c52.207-0.089,96.99-29.694,117.063-72.106
					c3.68-7.776,11.634-12.888,20.565-12.878l0,0c12.374,0.014,22.397,9.607,22.397,21.426v1019.103
					c0,222.2,187.195,460.802,414.893,449.501l888.465-44.095v-358.428L2522.007,2689.787z"/>
				
					<linearGradient id="SVGID_00000107585866784683033040000001751637895740051354_" gradientUnits="userSpaceOnUse" x1="2313.9214" y1="1421.3713" x2="3086.6084" y2="3419.1741" gradientTransform="matrix(-1 0 0 1 4062.8872 0)">
					<stop  offset="0" style="stop-color:#FCB148"/>
					<stop  offset="0.0521" style="stop-color:#FDBA46"/>
					<stop  offset="0.1424" style="stop-color:#FFC244"/>
					<stop  offset="0.3183" style="stop-color:#FFC444"/>
					<stop  offset="0.4849" style="stop-color:#FDB946"/>
					<stop  offset="0.7754" style="stop-color:#F99C4D"/>
					<stop  offset="0.8658" style="stop-color:#F8924F"/>
					<stop  offset="1" style="stop-color:#F8924F"/>
				</linearGradient>
				<path style="fill:url(#SVGID_00000107585866784683033040000001751637895740051354_);" d="M1316.458,2734.431
					c117.727-4.36,212.496-96.999,212.496-206.946V1163.518l-342.197-2.502l745.3-812.561v1665.696
					c0,11.818,10.016,21.256,22.362,21.08l0.004,0c8.884-0.127,16.803-5.328,20.454-13.125
					c20.685-44.166,67.625-74.734,121.404-72.988c65.178,2.117,117.653,52.877,119.666,115.441
					c2.203,68.426-54.73,125.711-125.583,127.104c-51.275,1.008-95.545-27.525-115.473-69.425
					c-3.66-7.695-11.575-12.669-20.473-12.52l0,0c-12.346,0.208-22.362,9.957-22.362,21.775v484.902
					c0,222.191-189.565,479.482-426.76,491.254L503.665,3157.36V2764.53L1316.458,2734.431z"/>
				
					<linearGradient id="SVGID_00000047039136559757759090000009019259580605944763_" gradientUnits="userSpaceOnUse" x1="3709.8538" y1="2994.4131" x2="210.4651" y2="-151.2237">
					<stop  offset="0" style="stop-color:#AA80F9"/>
					<stop  offset="0.9964" style="stop-color:#6165D7"/>
				</linearGradient>
				<path style="fill:url(#SVGID_00000047039136559757759090000009019259580605944763_);" d="M1938.861,1217.973
					c-4.302,4.672-10.598,7.624-17.637,7.597h-0.006c-9.345-0.034-17.682-5.41-21.531-13.566
					c-21.833-46.269-71.607-78.206-129.023-76.082c-70.152,2.592-127.084,57.099-129.278,123.957
					c-2.399,73.143,59.388,133.053,135.614,132.922c54.709-0.092,101.637-31.117,122.672-75.56
					c3.856-8.149,12.192-13.505,21.551-13.494c7.039,0.007,13.335,2.989,17.637,7.681V1217.973z"/>
			</g>
		</g>
		<g>
			
				<linearGradient id="SVGID_00000154387626280818711490000011642920378137764007_" gradientUnits="userSpaceOnUse" x1="2422.6345" y1="2863.2139" x2="2563.6033" y2="3371.927" gradientTransform="matrix(-1 0 0 1 3597.1677 0)">
				<stop  offset="0" style="stop-color:#311944"/>
				<stop  offset="1" style="stop-color:#893976"/>
			</linearGradient>
			<path style="fill:url(#SVGID_00000154387626280818711490000011642920378137764007_);" d="M1035.623,3151.593
				c0,0-6.722,27.247-6.935,37.118c-0.215,9.872,108.419,23.632,110.111,16.359c1.691-7.273-16.495-20.509-29.624-25.719
				c-13.13-5.21-51.643-19.392-51.643-19.392L1035.623,3151.593z"/>
			
				<linearGradient id="SVGID_00000102509316308541432020000016646449618890638499_" gradientUnits="userSpaceOnUse" x1="2548.0972" y1="3222.8782" x2="2550.1404" y2="3051.2639" gradientTransform="matrix(-1 0 0 1 3597.1677 0)">
				<stop  offset="0" style="stop-color:#FFC444"/>
				<stop  offset="0.9964" style="stop-color:#F36F56"/>
			</linearGradient>
			<path style="fill:url(#SVGID_00000102509316308541432020000016646449618890638499_);" d="M1064.295,3126.19l-6.229,34.051
				c0,0-13.337,7.355-23.978,0l-2.59-37.814L1064.295,3126.19z"/>
			
				<linearGradient id="SVGID_00000142135662288600106970000001650241983753591729_" gradientUnits="userSpaceOnUse" x1="2599.1248" y1="2814.3044" x2="2740.0947" y2="3323.022" gradientTransform="matrix(-1 0 0 1 3597.1677 0)">
				<stop  offset="0" style="stop-color:#311944"/>
				<stop  offset="1" style="stop-color:#893976"/>
			</linearGradient>
			<path style="fill:url(#SVGID_00000142135662288600106970000001650241983753591729_);" d="M837.498,3180.76
				c0,0-6.724,27.246-6.938,37.118c-0.214,9.872,108.421,23.632,110.112,16.359c1.691-7.272-16.495-20.509-29.624-25.719
				c-13.129-5.209-51.642-19.392-51.642-19.392L837.498,3180.76z"/>
			
				<linearGradient id="SVGID_00000165927496388410914550000002606046477834701197_" gradientUnits="userSpaceOnUse" x1="2746.542" y1="3225.2422" x2="2748.5852" y2="3053.6248" gradientTransform="matrix(-1 0 0 1 3597.1677 0)">
				<stop  offset="0" style="stop-color:#FFC444"/>
				<stop  offset="0.9964" style="stop-color:#F36F56"/>
			</linearGradient>
			<path style="fill:url(#SVGID_00000165927496388410914550000002606046477834701197_);" d="M866.169,3155.357l-6.229,34.051
				c0,0-13.336,7.356-23.978,0l-2.589-37.814L866.169,3155.357z"/>
			
				<linearGradient id="SVGID_00000026126315331797091050000007053595489913463706_" gradientUnits="userSpaceOnUse" x1="2449.1748" y1="2670.9438" x2="2631.896" y2="2670.9438" gradientTransform="matrix(-1 0 0 1 3597.1677 0)">
				<stop  offset="0" style="stop-color:#444B8C"/>
				<stop  offset="0.9964" style="stop-color:#26264F"/>
			</linearGradient>
			<path style="fill:url(#SVGID_00000026126315331797091050000007053595489913463706_);" d="M1116.324,2228.397
				c10.556,26.562,21.112,53.123,31.669,79.684c-1.549,146.631-9.217,305.595-26.041,474.907
				c-12.516,125.967-28.836,244.939-47.51,356.346c-17.025-2.152-34.051-4.31-51.077-6.46
				c-20.78-51.022-43.996-127.659-39.331-219.59c4.865-95.893,34.887-106.271,40.388-198.018
				c7.129-118.914-40.117-154.579-55.198-299.512c-5.767-55.427-6.88-127.307,8.172-213.198
				C1023.707,2211.167,1070.015,2219.786,1116.324,2228.397z"/>
			
				<linearGradient id="SVGID_00000057132714450637888570000009901772030318015379_" gradientUnits="userSpaceOnUse" x1="2449.1758" y1="2670.9438" x2="2631.8962" y2="2670.9438" gradientTransform="matrix(-1 0 0 1 3597.1677 0)">
				<stop  offset="0" style="stop-color:#444B8C"/>
				<stop  offset="0.9964" style="stop-color:#26264F"/>
			</linearGradient>
			<path style="opacity:0.3;fill:url(#SVGID_00000057132714450637888570000009901772030318015379_);" d="M977.397,2202.555
				c25.01,4.65,50.019,9.302,75.03,13.958c39.069,82.642,45.155,165.889,34.273,201.623
				c-15.394,50.559-46.531,64.655-49.032,116.455c-2.475,51.254,26.583,66.924,40.862,128.712
				c9.883,42.78,3.319,80.859-10.217,155.271c-27.263,149.89-67.454,193.176-40.86,245.167c7.557,14.772,21.861,32.79,51.493,48.046
				c-1.493,9.206-2.977,18.442-4.503,27.546c-17.025-2.149-34.051-4.31-51.077-6.459c-20.78-51.028-43.996-127.659-39.331-219.591
				c4.865-95.894,34.887-106.274,40.388-198.019c7.129-118.914-40.117-154.576-55.198-299.51
				C963.458,2360.327,962.345,2288.448,977.397,2202.555z"/>
			
				<linearGradient id="SVGID_00000087393207286395727960000001382265506704246696_" gradientUnits="userSpaceOnUse" x1="2552.3345" y1="2697.0479" x2="2829.7029" y2="2697.0479" gradientTransform="matrix(-1 0 0 1 3597.1677 0)">
				<stop  offset="0" style="stop-color:#444B8C"/>
				<stop  offset="0.9964" style="stop-color:#26264F"/>
			</linearGradient>
			<path style="fill:url(#SVGID_00000087393207286395727960000001382265506704246696_);" d="M1044.833,2268.964
				c-33.996,127.114-65.958,263.513-93.997,408.638c-33.854,175.227-57.718,341.068-74.25,495.495
				c-18.799-0.969-37.597-1.945-56.396-2.915c-62.193-152.134-58.765-251.625-42.936-315.312
				c6.099-24.541,21.16-72.413,29.546-145.09c5.845-50.662,5.702-89.585,5.378-136.387c-0.709-102.616-9.699-125.725-5-203.795
				c4.407-73.269,7.073-110.307,29.687-130.239C896.442,2186.849,1034.379,2263.056,1044.833,2268.964z"/>
			
				<linearGradient id="SVGID_00000062189893879051884430000002816854556682543747_" gradientUnits="userSpaceOnUse" x1="1905.0205" y1="1928.9875" x2="2076.6399" y2="2103.6714" gradientTransform="matrix(-1 0 0 1 3597.1677 0)">
				<stop  offset="0" style="stop-color:#311944"/>
				<stop  offset="1" style="stop-color:#893976"/>
			</linearGradient>
			<path style="fill:url(#SVGID_00000062189893879051884430000002816854556682543747_);" d="M1590.624,1973.655
				c0,0,41.3-3.54,47.275-10.236c5.974-6.695,15.05-17.418,15.946-23.556c0.895-6.139,8.874,3.031,1.641,16.343
				c-7.233,13.312,13.29,10.493,16.492,10.17c7.364-0.74,35.456-1.562,34.646,0.176c-0.811,1.74,3.336,9.425-16.615,18.465
				c-17.465,7.914-38.256,2.763-49.61,3.307c-11.353,0.543-11.353,0.543-11.353,0.543l-30.111,2.296L1590.624,1973.655z"/>
			<path style="fill:#FFFFFF;" d="M1614.833,1954.359c1.819,13.767,3.638,27.534,5.457,41.3
				c-27.354,22.817-87.83,66.554-171.967,73.113c-148.326,11.57-295.419-98.205-322.804-221.673
				c-13.561-61.149-2.483-146.94,35.519-160.736c10.548-3.831,26.396-3.286,59.067,18.663
				c87.191,58.569,94.606,135.489,142.774,187.521C1397.544,1929.992,1465.704,1967.928,1614.833,1954.359z"/>
			<path style="fill:#FFFFFF;" d="M1160.251,2335.393c20.36-28.378,0.093-58.945-0.518-115.851
				c-0.692-64.494,24.827-73.179,57.724-177.334c21.876-69.27,42.878-135.77,30.645-216.562
				c-5.862-38.72-15.805-104.394-66.659-139.806c-26.243-18.273-63.962-19.679-138.329-21.738
				c-91.963-2.55-137.943-3.826-173.533,11.42c-5.209,2.233-113.626,50.416-128.158,141.953
				c-14.792,93.164,86.295,113.946,89.893,240.055c1.616,56.611-16.197,142.055-27.749,197.475
				c-11.093,53.212-16.865,66.602-7.561,83.727c22.425,41.277,101.598,36.367,259.946,26.558
				C1118.067,2361.441,1145.058,2356.569,1160.251,2335.393z"/>
			
				<linearGradient id="SVGID_00000076576259372861725070000002294804888036871561_" gradientUnits="userSpaceOnUse" x1="3109.8066" y1="2729.9602" x2="2490.7581" y2="1841.2267" gradientTransform="matrix(-1 0 0 1 3597.1677 0)">
				<stop  offset="0" style="stop-color:#AA80F9"/>
				<stop  offset="0.9964" style="stop-color:#6165D7"/>
			</linearGradient>
			<path style="opacity:0.3;fill:url(#SVGID_00000076576259372861725070000002294804888036871561_);" d="M943.686,2046.296
				c-8.573,23.836-33.839,40.128-55.162,98.067c-4.603,12.511-37.39,101.593-6.13,126.674c18.058,14.483,37.165-8.686,83.765-8.178
				c80.75,0.88,113.597,71.438,167.531,57.211c9.357-2.473,21.92-8.327,35.172-23.032c1.258,14.309-0.135,26.538-8.611,38.355
				c-15.193,21.177-42.184,26.048-104.297,29.897c-158.348,9.81-237.522,14.719-259.946-26.558
				c-9.304-17.125-3.532-30.514,7.561-83.727c11.552-55.42,29.365-140.863,27.749-197.475
				c-3.598-126.109-104.685-146.891-89.893-240.055c3.954-24.906,14.962-46.484,28.845-64.919
				C895.585,1815.345,970.63,1971.395,943.686,2046.296z"/>
			
				<linearGradient id="SVGID_00000115512473629548934950000016725644460612443570_" gradientUnits="userSpaceOnUse" x1="2732.8411" y1="2236.9868" x2="2832.6938" y2="2236.9868" gradientTransform="matrix(-1 0 0 1 3597.1677 0)">
				<stop  offset="0" style="stop-color:#311944"/>
				<stop  offset="1" style="stop-color:#893976"/>
			</linearGradient>
			<path style="fill:url(#SVGID_00000115512473629548934950000016725644460612443570_);" d="M765.325,2217.597l24.587,18.622
				c5.083-5,16.724-14.976,33.839-17.33c19.282-2.646,40.555,5.07,40.576,11.159c0.018,4.877-13.619,8.702-15.727,9.294
				c-17.022,4.777-28.882-1.274-36.099,4.837c-2.552,2.161-5.849,6.296-12.948,9.803c-1.864,0.922-3.804,1.712-4.817,2.017
				c-11.378,3.406-28.768-17.321-30.262-19.129L765.325,2217.597z"/>
			<path style="fill:#FFFFFF;" d="M869.114,1883.873c22.343-43.394,40.838-111.091,19.41-215.545
				c-201.247,61.239-315.345,235.5-288.072,383.075c22.482,121.656,134.346,188.999,159.359,203.286
				c7.15-13.281,14.302-26.558,21.452-39.839c-27.433-35.955-57.4-88.269-48.064-144.478
				C746.14,1992.445,823.88,1971.724,869.114,1883.873z"/>
			
				<linearGradient id="SVGID_00000169523054677973491240000001581527351807144886_" gradientUnits="userSpaceOnUse" x1="113.2412" y1="1678.0562" x2="113.2412" y2="1501.0743" gradientTransform="matrix(-0.827 0.5622 0.5622 0.827 239.2139 289.0357)">
				<stop  offset="0" style="stop-color:#311944"/>
				<stop  offset="1" style="stop-color:#893976"/>
			</linearGradient>
			<path style="fill:url(#SVGID_00000169523054677973491240000001581527351807144886_);" d="M1045.72,1571.36
				c0,0-4.275,34.003-16.917,58.711c-11.424,22.331-62.941,32.816-73.56,37.153c-10.621,4.337,17.501,21.759,46.718,27.081
				c29.215,5.322,113.864,5.374,129.922-4.577c16.057-9.95-11.357-11.302-31.762-20.705c-20.403-9.401-29.265-51.49-24.058-69.854
				C1081.268,1580.803,1045.72,1571.36,1045.72,1571.36z"/>
			
				<linearGradient id="SVGID_00000086653649915031971270000016561644884663804559_" gradientUnits="userSpaceOnUse" x1="2588.1931" y1="1683.2118" x2="2514.1707" y2="1495.2084" gradientTransform="matrix(-1 0 0 1 3597.1677 0)">
				<stop  offset="0" style="stop-color:#444B8C"/>
				<stop  offset="0.9964" style="stop-color:#3E4177"/>
			</linearGradient>
			<path style="fill:url(#SVGID_00000086653649915031971270000016561644884663804559_);" d="M1093.296,1562.72
				c16.486-13.791,18.76-15.374,20.841-20.431c8.349-20.297-5.522-50.119-26.152-58.841c-1.073-0.452-14.921-6.141-20.84-0.409
				c-5.027,4.867,1.172,12.642-2.86,22.475c-3.776,9.206-12.023,9.257-28.195,20.431c-13.323,9.201-21.601,14.921-24.109,23.701
				c-5.17,18.1,14.961,46.544,34.733,47.399C1053.824,1597.35,1056.043,1593.884,1093.296,1562.72z"/>
			<g>
				
					<linearGradient id="SVGID_00000138569447126688412530000002795894320811366038_" gradientUnits="userSpaceOnUse" x1="1021.2098" y1="1466.0648" x2="1065.905" y2="1572.8977">
					<stop  offset="0" style="stop-color:#311944"/>
					<stop  offset="1" style="stop-color:#893976"/>
				</linearGradient>
				<path style="fill:url(#SVGID_00000138569447126688412530000002795894320811366038_);" d="M1048.416,1600.039
					c0,0,14.771,19.696,40.006,15.598c22.594-3.668,21.015-54.975,5.451-64.399c-5.192-3.142-15.04-3.706-22.717-0.737
					c-4.536,1.755-5.925,3.843-13.39,6.567c-6.885,2.51-8.958,1.92-10.915,3.92c-2.45,2.5-3.874,8.189,2.014,22.667
					c-4.761-3.976-10.13-5.159-13.65-3.064c-0.562,0.336-2.022,1.548-2.745,3.242
					C1029.852,1589.965,1035.886,1596.89,1048.416,1600.039z"/>
			</g>
		</g>
		<g>
			<g>
				
					<linearGradient id="SVGID_00000160906239030612976040000004352133647788408205_" gradientUnits="userSpaceOnUse" x1="1868.8361" y1="3227.4558" x2="1933.547" y2="3227.4558" gradientTransform="matrix(0.9987 -0.0516 0.0516 0.9987 673.5908 20.3958)">
					<stop  offset="0" style="stop-color:#AA80F9"/>
					<stop  offset="0.9964" style="stop-color:#6165D7"/>
				</linearGradient>
				<path style="fill:url(#SVGID_00000160906239030612976040000004352133647788408205_);" d="M2757.116,3118.62
					c4.402,6.473,9.752,16.132,12.777,28.733c1.326,5.523,1.968,10.621,2.227,15.088c-2.753,5.895-16.686,26.854-38.734,35.013
					c-13.638,5.048-38.392-3.229-15.115-23.544c23.275-20.315,26.518-24.826,12.285-64.922c-3.661-10.316-3.517-14.329-1.967-15.344
					C2732.208,3091.271,2745.934,3105.789,2757.116,3118.62z"/>
				
					<linearGradient id="SVGID_00000065790845113621014340000017367381466759089312_" gradientUnits="userSpaceOnUse" x1="1992.3932" y1="3246.2729" x2="2057.105" y2="3246.2729" gradientTransform="matrix(0.9987 -0.0516 0.0516 0.9987 673.5908 20.3958)">
					<stop  offset="0" style="stop-color:#AA80F9"/>
					<stop  offset="0.9964" style="stop-color:#6165D7"/>
				</linearGradient>
				<path style="fill:url(#SVGID_00000065790845113621014340000017367381466759089312_);" d="M2881.483,3131.037
					c4.402,6.472,9.753,16.133,12.778,28.734c1.325,5.522,1.967,10.621,2.227,15.088c-2.755,5.894-16.687,26.853-38.735,35.013
					c-13.639,5.048-38.392-3.23-15.115-23.545s26.519-24.825,12.286-64.922c-3.662-10.315-3.518-14.328-1.968-15.344
					C2856.576,3103.688,2870.301,3118.206,2881.483,3131.037z"/>
				
					<linearGradient id="SVGID_00000115475545086859859930000008615947614045881266_" gradientUnits="userSpaceOnUse" x1="1763.0144" y1="2762.1355" x2="2156.4219" y2="2762.1355" gradientTransform="matrix(0.9987 -0.0516 0.0516 0.9987 673.5908 20.3958)">
					<stop  offset="0" style="stop-color:#444B8C"/>
					<stop  offset="0.9964" style="stop-color:#26264F"/>
				</linearGradient>
				<path style="fill:url(#SVGID_00000115475545086859859930000008615947614045881266_);" d="M2925.826,2267.905
					c10.461,52.424,20.921,104.849,31.381,157.274c-17.255,50.522-33.031,105.467-45.964,164.666
					c-46.717,213.841-39.135,404.395-18.382,549.283c-11.055,6.13-22.11,12.257-33.165,18.387
					c-33.769-76.032-76.256-189.441-100.08-332.104c-28.148-168.548-17.47-301.43-25.269-301.629
					c-7.475-0.189-24.224,121.701-19.531,260.083c4.962,146.284,32.354,265.854,56.471,347.665
					c-13.927,3.095-27.854,6.191-41.781,9.287c-56.664-104.214-116.419-247.221-142.397-422.685
					c-18.04-121.852-39.95-283.798,36.039-454.247c7.588-17.021,34.806-55.159,39.834-64.526
					C2757.31,2214.084,2831.498,2253.178,2925.826,2267.905z"/>
				
					<linearGradient id="SVGID_00000064340061806289898510000009561826739256877485_" gradientUnits="userSpaceOnUse" x1="1826.9891" y1="2613.7229" x2="2207.0054" y2="2613.7229" gradientTransform="matrix(0.9976 0.069 -0.069 0.9976 918.0268 -76.9363)">
					<stop  offset="0" style="stop-color:#444B8C"/>
					<stop  offset="0.9964" style="stop-color:#26264F"/>
				</linearGradient>
				<path style="opacity:0.25;fill:url(#SVGID_00000064340061806289898510000009561826739256877485_);" d="M2911.243,2589.845
					c12.933-59.2,28.708-114.144,45.964-164.667c-10.46-52.425-20.92-104.85-31.381-157.274
					c-94.328-14.728-168.515-53.82-262.844-68.547c-5.028,9.366-32.246,47.504-39.834,64.525
					c-25.616,57.46-40.076,113.943-47.341,168.259c181.241-8.18,235.001,27.781,250.636,62.088
					c24.89,54.614-43.126,113.184-14.549,224.458c8.594,33.466,20.277,49.701,23.025,91.896
					c3.608,55.373-14.299,61.366-15.204,117.85c-0.991,61.801,19.52,112.514,36.35,154.13
					c10.464,25.873,21.174,46.555,29.141,60.807c2.551-1.414,5.102-2.828,7.655-4.244
					C2872.107,2994.24,2864.526,2803.686,2911.243,2589.845z"/>
			</g>
			
				<linearGradient id="SVGID_00000069366292582164808640000003204649372124406700_" gradientUnits="userSpaceOnUse" x1="2580.0813" y1="1994.1108" x2="1841.3981" y2="1604.8368" gradientTransform="matrix(1 0 0 1 779.4005 0)">
				<stop  offset="0" style="stop-color:#311944"/>
				<stop  offset="1" style="stop-color:#6B3976"/>
			</linearGradient>
			<path style="fill:url(#SVGID_00000069366292582164808640000003204649372124406700_);" d="M2765.512,1538.864
				c6.587,7.133-0.933,18.398,1.264,56.34c1.005,17.355,3.547,31.731,5.777,41.899c1.293,9.273,2.712,17.849,4.229,25.399
				c1.113,5.538,2.136,9.851,3.422,14.421c2.382,8.476,5.403,16.813,8.974,24.781c0.236,0.527,0.027,1.14-0.468,1.417
				c-0.029,0.017-0.059,0.031-0.09,0.045c-0.558,0.251-1.212,0.001-1.462-0.557c-3.617-8.067-6.674-16.506-9.088-25.085
				c-1.302-4.627-2.337-8.99-3.461-14.586c-0.798-3.979-1.57-8.259-2.311-12.749c-0.002,12.032,1.107,25.208,7.158,42.327
				c18.367,51.961-19.363,91.325-51.818,96.114c-37.428,5.522-66.001-21.631-74.893-30.563
				c-35.838-36.005-48.59-99.412-23.566-149.345C2661.962,1543.308,2749.37,1521.384,2765.512,1538.864z"/>
			
				<linearGradient id="SVGID_00000162324492604778749870000002407956220221008799_" gradientUnits="userSpaceOnUse" x1="2571.6499" y1="2010.1091" x2="1832.9694" y2="1620.8364" gradientTransform="matrix(1 0 0 1 779.4005 0)">
				<stop  offset="0" style="stop-color:#311944"/>
				<stop  offset="1" style="stop-color:#6B3976"/>
			</linearGradient>
			<path style="fill:url(#SVGID_00000162324492604778749870000002407956220221008799_);" d="M2675.757,1600.021
				c0.992-6.124,5.751-31.165,26.403-48.696c39.186-33.26,109.198-17.084,151.487,12.92c44.251,31.395,29.934,57.771,73.902,93.166
				c47.756,38.445,76.204,16.547,140.693,51.782c25.367,13.859,93.729,51.209,105.099,119.347
				c9.826,58.878-25.935,122.565-74.845,150.775c-83.731,48.294-200.928-10.314-259.472-69.311
				c-56.149-56.585-24.146-75.177-107.238-187.089C2701.744,1682.451,2668.349,1645.779,2675.757,1600.021z"/>
			<g>
				
					<linearGradient id="SVGID_00000093858151068445274560000000547828083103024052_" gradientUnits="userSpaceOnUse" x1="925.5853" y1="1901.2732" x2="1042.8669" y2="1901.2732" gradientTransform="matrix(0.9994 0.0335 -0.0335 0.9994 1370.5779 152.1848)">
					<stop  offset="0" style="stop-color:#FFC444"/>
					<stop  offset="0.9964" style="stop-color:#F36F56"/>
				</linearGradient>
				<path style="fill:url(#SVGID_00000093858151068445274560000000547828083103024052_);" d="M2257.414,2102.155
					c7.338,1.074,17.587-4.805,25.43-10.285c5.514-3.853,19.381-7.007,19.381-7.007l-11.569-17.62l-10.731,1.223
					c0,0-18.957-1.429-30.096,0.178c-11.139,1.605-17.653,6.93-18.038,18.398L2257.414,2102.155z"/>
				<path style="fill:#FFFFFF;" d="M2611.896,1799.379c-56.473,74.011-34.318,113.585-72.991,174.7
					c-38.335,60.582-66.325-14.673-167.522,27.015c-38.427,15.83-67.931,33.866-87.103,46.849c0.457,4.169,1.104,8.639,2.006,13.357
					c0.613,3.201,1.603,7.87,3.543,14.846c1.866,6.71,4.998,16.942,10.05,29.97c30.084,16.563,83.513,39.343,144.718,26.987
					c11.144-2.25,18.916-4.278,30.4-8.978c38.574-15.791,99.155-25.159,158.211-105.607c44.599-60.753,51.232-65.251,59.614-94.196
					c20.717-71.552-3.105-157.362-33.843-162.48C2642.946,1759.172,2627.539,1778.88,2611.896,1799.379z"/>
			</g>
			<path style="fill:#FFFFFF;" d="M2630.399,1779.421c-28.705,35.788-33.296,75.715-34.015,93.422
				c-2.238,55.08,23.662,97.135,29.873,108.244c29.341,52.485,31.849,161.669-81.844,409.123
				c14.236,9.565,67.793,85.735,85.144,44.749c23.656-55.879,117.288-441.505,35.485,12.461c-1.078,5.981,11.791,3.467,17.924,5.06
				c43.979,11.422,96.021,17.663,153.721,10.957c90.435-10.511,156.255-48.35,190.687-71.859
				c-30.709-55.105-64.691-130.47-85.586-224.047c-39.859-178.518-10.983-328.81,11.523-410.572
				c-29.95-16.423-124.266-63.202-227.122-34.268C2700.562,1729.899,2660.636,1741.726,2630.399,1779.421z"/>
			
				<linearGradient id="SVGID_00000094614978061699829890000008769731863197028789_" gradientUnits="userSpaceOnUse" x1="1921.2777" y1="1960.2418" x2="2530.436" y2="2346.2427" gradientTransform="matrix(1 0 0 1 779.4005 0)">
				<stop  offset="0" style="stop-color:#FF9085"/>
				<stop  offset="1" style="stop-color:#FB6FBB"/>
			</linearGradient>
			<path style="opacity:0.3;fill:url(#SVGID_00000094614978061699829890000008769731863197028789_);" d="M2941.79,2167.529
				c-39.859-178.517-10.984-328.809,11.523-410.571c-29.95-16.424-124.265-63.203-227.122-34.268
				c-25.629,7.209-65.554,19.038-95.79,56.732c-22.856,28.495-30.406,59.574-32.904,80.013c0.768-0.213,1.828-0.498,3.095-0.809
				c63.577-15.591,143.446,28.579,173.999,75.028c50.987,77.514-39.843,154.576-23.945,284.144
				c8.593,70.042,47.693,149.864,150.542,232.868c57.564-16.198,100.574-41.601,126.188-59.087
				C2996.666,2336.471,2962.684,2261.106,2941.79,2167.529z"/>
			
				<linearGradient id="SVGID_00000038384522353595368310000006413487863078631553_" gradientUnits="userSpaceOnUse" x1="1192.8365" y1="1883.4567" x2="1204.6194" y2="1569.5996" gradientTransform="matrix(-0.9962 0.0867 0.0867 0.9962 3781.5962 -81.7878)">
				<stop  offset="0" style="stop-color:#FFC444"/>
				<stop  offset="0.9964" style="stop-color:#F36F56"/>
			</linearGradient>
			<path style="fill:url(#SVGID_00000038384522353595368310000006413487863078631553_);" d="M2743.942,1655.161
				c-7.256,19.602-12.597,43.736-0.858,58.335c7.152,8.895,17.904,13.149,28.498,17.11c25.036,9.361,35.588,3.412,41.031,10.1
				c11.981,14.723-11.064,78.032-58.299,88.216c-47.007,10.135-95.406-37.21-90.516-59.833
				c4.412-20.413,51.861-19.074,57.642-44.892c2.912-12.998-6.246-26.148-13.993-34.894l-5.549,1.07L2743.942,1655.161z"/>
			
				<linearGradient id="SVGID_00000112632196415287783650000014210280189936917134_" gradientUnits="userSpaceOnUse" x1="1974.4462" y1="1854.2446" x2="1984.0957" y2="1597.2124" gradientTransform="matrix(1 0 0 1 779.4005 0)">
				<stop  offset="0" style="stop-color:#FFC444"/>
				<stop  offset="0.9964" style="stop-color:#F36F56"/>
			</linearGradient>
			<path style="opacity:0.4;fill:url(#SVGID_00000112632196415287783650000014210280189936917134_);" d="M2812.613,1740.708
				c-5.444-6.688-15.995-0.742-41.031-10.101c-10.594-3.961-21.346-8.216-28.498-17.111c-11.738-14.599-6.398-38.732,0.858-58.334
				l-42.043,35.213l5.549-1.069c6.148,6.941,13.085,16.665,14.271,26.878c3.522,1.932,6.556,4.138,8.773,6.355
				c-4.843,14.097-5.754,25.928-5.786,33.522c-0.052,11.842-0.09,20.637,5.786,28.334c6.409,8.396,16.102,10.569,24.574,12.467
				c18.827,4.217,35.619,0.428,46.511-3.405C2815.019,1772.561,2819.341,1748.975,2812.613,1740.708z"/>
			
				<linearGradient id="SVGID_00000114754924482502037680000002038671733186854797_" gradientUnits="userSpaceOnUse" x1="931.2501" y1="1606.8085" x2="928.0724" y2="1862.8295" gradientTransform="matrix(-1 -0.0041 -0.0043 1.043 3648.1765 -42.6284)">
				<stop  offset="0" style="stop-color:#FFC444"/>
				<stop  offset="0.9964" style="stop-color:#F36F56"/>
			</linearGradient>
			<path style="fill:url(#SVGID_00000114754924482502037680000002038671733186854797_);" d="M2731.917,1675.207
				c0,0-2.389,24.008-26.163,24.133c-29.294,0.154-32.544-77.141-25.421-81.558c8.26-5.122,15.486,7.423,34.712,3.048
				c8.096-1.842,15.093-12.253,19.196-1.033c4.669,12.766,0.725,35.364,0.725,35.364s6.96-5.739,8.028,1.167
				C2744.392,1665.365,2737.611,1671.012,2731.917,1675.207z"/>
			
				<linearGradient id="SVGID_00000112625249916684022400000013752909924995992208_" gradientUnits="userSpaceOnUse" x1="2596.3352" y1="1963.2642" x2="1857.6566" y2="1573.9926" gradientTransform="matrix(1 0 0 1 779.4005 0)">
				<stop  offset="0" style="stop-color:#311944"/>
				<stop  offset="1" style="stop-color:#6B3976"/>
			</linearGradient>
			<path style="fill:url(#SVGID_00000112625249916684022400000013752909924995992208_);" d="M2685.579,1591.219
				c-9.296,9.48-14.423,27.873-7.98,37.119c9.256,13.282,36.633-0.586,47.829,15.662c4.908,7.123,4.624,17.011,7.169,16.85
				c2.107-0.133,3.354-6.984,4.567-12.62c6.694-31.073,14.438-34.56,12.079-43.456
				C2744.446,1586.69,2704.667,1571.754,2685.579,1591.219z"/>
			<g>
				<path style="fill:#EA645E;" d="M3220.813,2137.847l-519.581,209.208c-13.514,5.441-28.88-1.103-34.322-14.617l-117.559-295.219
					c-5.442-13.514,1.103-28.88,14.617-34.322l519.581-209.208c13.514-5.442,28.88,1.102,34.322,14.617l117.559,295.219
					C3240.871,2117.039,3234.328,2132.405,3220.813,2137.847z"/>
				
					<linearGradient id="SVGID_00000183935196930840061910000016222441457969023885_" gradientUnits="userSpaceOnUse" x1="3046.8823" y1="1715.8907" x2="2695.3999" y2="2584.0515">
					<stop  offset="0" style="stop-color:#FCB148"/>
					<stop  offset="0.0521" style="stop-color:#FDBA46"/>
					<stop  offset="0.1424" style="stop-color:#FFC244"/>
					<stop  offset="0.3183" style="stop-color:#FFC444"/>
					<stop  offset="0.4849" style="stop-color:#FDB946"/>
					<stop  offset="0.7754" style="stop-color:#F99C4D"/>
					<stop  offset="0.8658" style="stop-color:#F8924F"/>
					<stop  offset="1" style="stop-color:#F8924F"/>
				</linearGradient>
				<path style="fill:url(#SVGID_00000183935196930840061910000016222441457969023885_);" d="M3230.546,2140.92l-519.581,209.208
					c-13.514,5.442-28.881-1.102-34.322-14.617l-117.559-295.218c-5.441-13.515,1.104-28.881,14.617-34.323l519.582-209.208
					c13.514-5.441,28.88,1.103,34.322,14.617l117.558,295.22C3250.605,2120.112,3244.061,2135.478,3230.546,2140.92z"/>
				<g>
					
						<linearGradient id="SVGID_00000019672328584144547000000003048805389519453112_" gradientUnits="userSpaceOnUse" x1="2777.874" y1="2090.2676" x2="2909.4304" y2="2090.2676">
						<stop  offset="0" style="stop-color:#FCB148"/>
						<stop  offset="0.0521" style="stop-color:#FDBA46"/>
						<stop  offset="0.1424" style="stop-color:#FFC244"/>
						<stop  offset="0.3183" style="stop-color:#FFC444"/>
						<stop  offset="0.4849" style="stop-color:#FDB946"/>
						<stop  offset="0.7754" style="stop-color:#F99C4D"/>
						<stop  offset="0.8658" style="stop-color:#F8924F"/>
						<stop  offset="1" style="stop-color:#F8924F"/>
					</linearGradient>
					<path style="fill:url(#SVGID_00000019672328584144547000000003048805389519453112_);" d="M2786.104,2071.891
						c28.186,0.497,53.716,24.069,56.998,52.545c0.921,7.994-0.06,15.513-2.489,22.233l62.696,28.992
						c5.365-15.214,7.398-32.249,5.323-50.272c-7.49-65.051-65.722-119.115-130.259-120.512c-0.168-0.004-0.331,0.005-0.498,0.002
						l7.732,67.03C2785.774,2071.909,2785.935,2071.888,2786.104,2071.891z"/>
					
						<linearGradient id="SVGID_00000152258492970517087690000017864113215257604529_" gradientUnits="userSpaceOnUse" x1="2673.0635" y1="2123.6619" x2="2903.3086" y2="2123.6619">
						<stop  offset="0" style="stop-color:#AA80F9"/>
						<stop  offset="0.9964" style="stop-color:#6165D7"/>
					</linearGradient>
					<path style="fill:url(#SVGID_00000152258492970517087690000017864113215257604529_);" d="M2840.612,2146.669
						c-6.226,17.228-22.294,29.05-42.558,28.818c-28.256-0.322-54.004-23.891-57.311-52.539
						c-3.288-28.48,16.845-51.259,44.863-51.04l-7.732-67.03c-64.78-1.126-111.606,51.293-104.001,117.098
						c7.623,65.959,67.001,120.004,131.906,120.485c46.606,0.346,83.515-27.057,97.529-66.8L2840.612,2146.669z"/>
				</g>
				<g>
					
						<linearGradient id="SVGID_00000018928859982969945090000003076723220216515497_" gradientUnits="userSpaceOnUse" x1="2929.8838" y1="2007.051" x2="3158.8948" y2="2007.051">
						<stop  offset="0" style="stop-color:#FCB148"/>
						<stop  offset="0.0521" style="stop-color:#FDBA46"/>
						<stop  offset="0.1424" style="stop-color:#FFC244"/>
						<stop  offset="0.3183" style="stop-color:#FFC444"/>
						<stop  offset="0.4849" style="stop-color:#FDB946"/>
						<stop  offset="0.7754" style="stop-color:#F99C4D"/>
						<stop  offset="0.8658" style="stop-color:#F8924F"/>
						<stop  offset="1" style="stop-color:#F8924F"/>
					</linearGradient>
					<path style="fill:url(#SVGID_00000018928859982969945090000003076723220216515497_);" d="M3157.686,1974.73l-216.688,88.724
						c-1.026,0.42-2.198-0.081-2.617-1.12l-8.348-20.649c-0.419-1.039,0.072-2.219,1.098-2.638l216.829-88.406
						c0.999-0.407,2.144,0.094,2.558,1.118l8.225,20.375C3159.159,1973.159,3158.685,1974.321,3157.686,1974.73z"/>
				</g>
				<g>
					
						<linearGradient id="SVGID_00000182519168398005500230000016997767170350405519_" gradientUnits="userSpaceOnUse" x1="2911.6067" y1="1963.1859" x2="3140.6177" y2="1963.1859">
						<stop  offset="0" style="stop-color:#FCB148"/>
						<stop  offset="0.0521" style="stop-color:#FDBA46"/>
						<stop  offset="0.1424" style="stop-color:#FFC244"/>
						<stop  offset="0.3183" style="stop-color:#FFC444"/>
						<stop  offset="0.4849" style="stop-color:#FDB946"/>
						<stop  offset="0.7754" style="stop-color:#F99C4D"/>
						<stop  offset="0.8658" style="stop-color:#F8924F"/>
						<stop  offset="1" style="stop-color:#F8924F"/>
					</linearGradient>
					<path style="fill:url(#SVGID_00000182519168398005500230000016997767170350405519_);" d="M3139.41,1930.864l-216.69,88.724
						c-1.026,0.419-2.198-0.082-2.617-1.121l-8.347-20.648c-0.42-1.039,0.071-2.22,1.097-2.638l216.829-88.405
						c0.999-0.407,2.144,0.093,2.558,1.118l8.227,20.374C3140.882,1929.294,3140.408,1930.456,3139.41,1930.864z"/>
				</g>
				<g>
					
						<linearGradient id="SVGID_00000168116476472456786110000013558851350182369687_" gradientUnits="userSpaceOnUse" x1="2965.5244" y1="2097.5232" x2="3194.5354" y2="2097.5232">
						<stop  offset="0" style="stop-color:#FCB148"/>
						<stop  offset="0.0521" style="stop-color:#FDBA46"/>
						<stop  offset="0.1424" style="stop-color:#FFC244"/>
						<stop  offset="0.3183" style="stop-color:#FFC444"/>
						<stop  offset="0.4849" style="stop-color:#FDB946"/>
						<stop  offset="0.7754" style="stop-color:#F99C4D"/>
						<stop  offset="0.8658" style="stop-color:#F8924F"/>
						<stop  offset="1" style="stop-color:#F8924F"/>
					</linearGradient>
					<path style="fill:url(#SVGID_00000168116476472456786110000013558851350182369687_);" d="M3193.328,2065.202l-216.689,88.723
						c-1.025,0.42-2.197-0.082-2.617-1.12l-8.346-20.649c-0.42-1.039,0.071-2.22,1.097-2.638l216.829-88.405
						c1-0.407,2.144,0.093,2.558,1.118l8.227,20.375C3194.799,2063.631,3194.325,2064.793,3193.328,2065.202z"/>
				</g>
				<g>
					
						<linearGradient id="SVGID_00000178172297162029788960000000055808672510824595_" gradientUnits="userSpaceOnUse" x1="2947.2471" y1="2053.6577" x2="3176.2578" y2="2053.6577">
						<stop  offset="0" style="stop-color:#FCB148"/>
						<stop  offset="0.0521" style="stop-color:#FDBA46"/>
						<stop  offset="0.1424" style="stop-color:#FFC244"/>
						<stop  offset="0.3183" style="stop-color:#FFC444"/>
						<stop  offset="0.4849" style="stop-color:#FDB946"/>
						<stop  offset="0.7754" style="stop-color:#F99C4D"/>
						<stop  offset="0.8658" style="stop-color:#F8924F"/>
						<stop  offset="1" style="stop-color:#F8924F"/>
					</linearGradient>
					<path style="fill:url(#SVGID_00000178172297162029788960000000055808672510824595_);" d="M3175.05,2021.337l-216.69,88.723
						c-1.025,0.42-2.197-0.081-2.617-1.12l-8.346-20.649c-0.42-1.038,0.071-2.219,1.097-2.637l216.829-88.406
						c1-0.406,2.145,0.094,2.558,1.119l8.226,20.374C3176.522,2019.766,3176.049,2020.928,3175.05,2021.337z"/>
				</g>
			</g>
			<g>
				
					<linearGradient id="SVGID_00000174566774966031232520000013373131057566223281_" gradientUnits="userSpaceOnUse" x1="747.9079" y1="2147.8169" x2="876.4904" y2="2147.8169" gradientTransform="matrix(0.7945 -0.6073 0.6073 0.7945 1001.0376 1036.3066)">
					<stop  offset="0" style="stop-color:#FFC444"/>
					<stop  offset="0.9964" style="stop-color:#F36F56"/>
				</linearGradient>
				<path style="fill:url(#SVGID_00000174566774966031232520000013373131057566223281_);" d="M2938.277,2234.096l-8.253,8.492
					c0,0-17.073,11.956-25.406,21.057c-8.335,9.1-10.161,18.141-2.521,28.138c7.64,9.996,20.777,1.903,32.235-4.979
					c6.97-4.187,11.582-16.293,14.427-26.39c2-7.099,11.572-19.408,11.572-19.408L2938.277,2234.096z"/>
				<path style="fill:#FFFFFF;" d="M2830.937,1783.648c21.046-44.847,176.966-8.3,291.352,72.396
					c36.303,25.609,40.09,106.838,27.365,169.371c-14.854,73.006-57.109,122.023-78.258,146.558
					c-37.28,43.246-75.791,68.145-100.259,81.561c-7.898-2.082-17.057-5.171-26.863-9.849c-8.976-4.284-16.602-8.997-22.894-13.459
					c-2.817-28.618-3.721-71.82,9.707-121.244c8.515-31.345,17.616-46.134,35.623-87.227c16.385-37.395,30.468-53.122,40.068-61.368
					c4.505-3.869,12.781-10.312,14.393-20.699c2.143-13.807-8.809-26.089-12.565-30.301
					c-37.149-41.659-125.549-20.756-164.012-69.103C2833.312,1826.101,2822.878,1800.82,2830.937,1783.648z"/>
			</g>
			
				<linearGradient id="SVGID_00000062874835729936221180000003814456561889311880_" gradientUnits="userSpaceOnUse" x1="2507.7329" y1="1941.1622" x2="1859.0634" y2="1599.324" gradientTransform="matrix(1 0 0 1 779.4005 0)">
				<stop  offset="0" style="stop-color:#311944"/>
				<stop  offset="1" style="stop-color:#6B3976"/>
			</linearGradient>
			<path style="fill:url(#SVGID_00000062874835729936221180000003814456561889311880_);" d="M2734.241,1619.798
				c-6.481,7.084,7.736,30.542,36.438,77.167c17.665,28.698,26.498,43.046,32.175,49.25c30.57,33.403,82.144,59.132,134.305,56.232
				c35.795-1.99,41.036-15.748,70.375-10.852c44.261,7.384,31.377-78.654,54.219-31.855c1.364,2.797-9.054,24.58-66.45-15.462
				c-46.963-32.764-59.734-22.882-133.543-68.257c-5.354-3.292-28.021-17.32-59.842-33.105
				C2764.51,1624.357,2740.689,1612.75,2734.241,1619.798z"/>
		</g>
	</g>
</g>
</svg>
