<?xml version="1.0" standalone="no"?>
<svg xmlns:xlink="http://www.w3.org/1999/xlink" id="wave" style="transform:rotate(180deg); transition: 0.3s" viewBox="0 0 1440 490" version="1.1" xmlns="http://www.w3.org/2000/svg"><defs><linearGradient id="sw-gradient-0" x1="0" x2="0" y1="1" y2="0"><stop stop-color="#fafafa" offset="0%"/><stop stop-color="#fafafa" offset="100%"/></linearGradient></defs><path style="transform:translate(0, 0px); opacity:1" fill="url(#sw-gradient-0)" d="M0,0L60,16.3C120,33,240,65,360,73.5C480,82,600,65,720,57.2C840,49,960,49,1080,114.3C1200,180,1320,310,1440,367.5C1560,425,1680,408,1800,408.3C1920,408,2040,425,2160,400.2C2280,376,2400,310,2520,294C2640,278,2760,310,2880,318.5C3000,327,3120,310,3240,277.7C3360,245,3480,196,3600,179.7C3720,163,3840,180,3960,204.2C4080,229,4200,261,4320,294C4440,327,4560,359,4680,334.8C4800,310,4920,229,5040,163.3C5160,98,5280,49,5400,40.8C5520,33,5640,65,5760,130.7C5880,196,6000,294,6120,351.2C6240,408,6360,425,6480,375.7C6600,327,6720,212,6840,138.8C6960,65,7080,33,7200,16.3C7320,0,7440,0,7560,73.5C7680,147,7800,294,7920,310.3C8040,327,8160,212,8280,155.2C8400,98,8520,98,8580,98L8640,98L8640,490L8580,490C8520,490,8400,490,8280,490C8160,490,8040,490,7920,490C7800,490,7680,490,7560,490C7440,490,7320,490,7200,490C7080,490,6960,490,6840,490C6720,490,6600,490,6480,490C6360,490,6240,490,6120,490C6000,490,5880,490,5760,490C5640,490,5520,490,5400,490C5280,490,5160,490,5040,490C4920,490,4800,490,4680,490C4560,490,4440,490,4320,490C4200,490,4080,490,3960,490C3840,490,3720,490,3600,490C3480,490,3360,490,3240,490C3120,490,3000,490,2880,490C2760,490,2640,490,2520,490C2400,490,2280,490,2160,490C2040,490,1920,490,1800,490C1680,490,1560,490,1440,490C1320,490,1200,490,1080,490C960,490,840,490,720,490C600,490,480,490,360,490C240,490,120,490,60,490L0,490Z"/></svg>