<?xml version="1.0" standalone="no"?>
<svg xmlns:xlink="http://www.w3.org/1999/xlink" id="wave" style="transform:rotate(180deg); transition: 0.3s" viewBox="0 0 1440 490" version="1.1" xmlns="http://www.w3.org/2000/svg"><defs><linearGradient id="sw-gradient-0" x1="0" x2="0" y1="1" y2="0"><stop stop-color="rgba(243, 106, 62, 1)" offset="0%"/><stop stop-color="rgba(255, 179, 11, 1)" offset="100%"/></linearGradient></defs><path style="transform:translate(0, 0px); opacity:1" fill="url(#sw-gradient-0)" d="M0,0L240,73.5C480,147,960,294,1440,334.8C1920,376,2400,310,2880,285.8C3360,261,3840,278,4320,310.3C4800,343,5280,392,5760,416.5C6240,441,6720,441,7200,375.7C7680,310,8160,180,8640,138.8C9120,98,9600,147,10080,212.3C10560,278,11040,359,11520,359.3C12000,359,12480,278,12960,277.7C13440,278,13920,359,14400,343C14880,327,15360,212,15840,155.2C16320,98,16800,98,17280,98C17760,98,18240,98,18720,81.7C19200,65,19680,33,20160,24.5C20640,16,21120,33,21600,89.8C22080,147,22560,245,23040,302.2C23520,359,24000,376,24480,326.7C24960,278,25440,163,25920,130.7C26400,98,26880,147,27360,187.8C27840,229,28320,261,28800,236.8C29280,212,29760,131,30240,106.2C30720,82,31200,114,31680,122.5C32160,131,32640,114,33120,130.7C33600,147,34080,196,34320,220.5L34560,245L34560,490L34320,490C34080,490,33600,490,33120,490C32640,490,32160,490,31680,490C31200,490,30720,490,30240,490C29760,490,29280,490,28800,490C28320,490,27840,490,27360,490C26880,490,26400,490,25920,490C25440,490,24960,490,24480,490C24000,490,23520,490,23040,490C22560,490,22080,490,21600,490C21120,490,20640,490,20160,490C19680,490,19200,490,18720,490C18240,490,17760,490,17280,490C16800,490,16320,490,15840,490C15360,490,14880,490,14400,490C13920,490,13440,490,12960,490C12480,490,12000,490,11520,490C11040,490,10560,490,10080,490C9600,490,9120,490,8640,490C8160,490,7680,490,7200,490C6720,490,6240,490,5760,490C5280,490,4800,490,4320,490C3840,490,3360,490,2880,490C2400,490,1920,490,1440,490C960,490,480,490,240,490L0,490Z"/></svg>