<?xml version="1.0" standalone="no"?>
<svg xmlns:xlink="http://www.w3.org/1999/xlink" id="wave" style="transform:rotate(0deg); transition: 0.3s" viewBox="0 0 1440 490" version="1.1" xmlns="http://www.w3.org/2000/svg"><defs><linearGradient id="sw-gradient-0" x1="0" x2="0" y1="1" y2="0"><stop stop-color="#fafafa" offset="0%"/><stop stop-color="#fafafa" offset="100%"/></linearGradient></defs><path style="transform:translate(0, 0px); opacity:1" fill="url(#sw-gradient-0)" d="M0,392L80,392C160,392,320,392,480,334.8C640,278,800,163,960,106.2C1120,49,1280,49,1440,65.3C1600,82,1760,114,1920,130.7C2080,147,2240,147,2400,122.5C2560,98,2720,49,2880,81.7C3040,114,3200,229,3360,277.7C3520,327,3680,310,3840,294C4000,278,4160,261,4320,269.5C4480,278,4640,310,4800,285.8C4960,261,5120,180,5280,138.8C5440,98,5600,98,5760,138.8C5920,180,6080,261,6240,302.2C6400,343,6560,343,6720,334.8C6880,327,7040,310,7200,277.7C7360,245,7520,196,7680,171.5C7840,147,8000,147,8160,155.2C8320,163,8480,180,8640,155.2C8800,131,8960,65,9120,98C9280,131,9440,261,9600,302.2C9760,343,9920,294,10080,269.5C10240,245,10400,245,10560,261.3C10720,278,10880,310,11040,294C11200,278,11360,212,11440,179.7L11520,147L11520,490L11440,490C11360,490,11200,490,11040,490C10880,490,10720,490,10560,490C10400,490,10240,490,10080,490C9920,490,9760,490,9600,490C9440,490,9280,490,9120,490C8960,490,8800,490,8640,490C8480,490,8320,490,8160,490C8000,490,7840,490,7680,490C7520,490,7360,490,7200,490C7040,490,6880,490,6720,490C6560,490,6400,490,6240,490C6080,490,5920,490,5760,490C5600,490,5440,490,5280,490C5120,490,4960,490,4800,490C4640,490,4480,490,4320,490C4160,490,4000,490,3840,490C3680,490,3520,490,3360,490C3200,490,3040,490,2880,490C2720,490,2560,490,2400,490C2240,490,2080,490,1920,490C1760,490,1600,490,1440,490C1280,490,1120,490,960,490C800,490,640,490,480,490C320,490,160,490,80,490L0,490Z"/></svg>