<?xml version="1.0" standalone="no"?>
<svg xmlns:xlink="http://www.w3.org/1999/xlink" id="wave" style="transform:rotate(0deg); transition: 0.3s" viewBox="0 0 1440 490" version="1.1" xmlns="http://www.w3.org/2000/svg"><defs><linearGradient id="sw-gradient-0" x1="0" x2="0" y1="1" y2="0"><stop stop-color="rgba(243, 106, 62, 1)" offset="0%"/><stop stop-color="rgba(255, 179, 11, 1)" offset="100%"/></linearGradient></defs><path style="transform:translate(0, 0px); opacity:1" fill="url(#sw-gradient-0)" d="M0,0L80,65.3C160,131,320,261,480,269.5C640,278,800,163,960,98C1120,33,1280,16,1440,32.7C1600,49,1760,98,1920,122.5C2080,147,2240,147,2400,130.7C2560,114,2720,82,2880,89.8C3040,98,3200,147,3360,163.3C3520,180,3680,163,3840,179.7C4000,196,4160,245,4320,269.5C4480,294,4640,294,4800,318.5C4960,343,5120,392,5280,375.7C5440,359,5600,278,5760,269.5C5920,261,6080,327,6240,294C6400,261,6560,131,6720,130.7C6880,131,7040,261,7200,310.3C7360,359,7520,327,7680,334.8C7840,343,8000,392,8160,367.5C8320,343,8480,245,8640,236.8C8800,229,8960,310,9120,318.5C9280,327,9440,261,9600,220.5C9760,180,9920,163,10080,196C10240,229,10400,310,10560,318.5C10720,327,10880,261,11040,212.3C11200,163,11360,131,11440,114.3L11520,98L11520,490L11440,490C11360,490,11200,490,11040,490C10880,490,10720,490,10560,490C10400,490,10240,490,10080,490C9920,490,9760,490,9600,490C9440,490,9280,490,9120,490C8960,490,8800,490,8640,490C8480,490,8320,490,8160,490C8000,490,7840,490,7680,490C7520,490,7360,490,7200,490C7040,490,6880,490,6720,490C6560,490,6400,490,6240,490C6080,490,5920,490,5760,490C5600,490,5440,490,5280,490C5120,490,4960,490,4800,490C4640,490,4480,490,4320,490C4160,490,4000,490,3840,490C3680,490,3520,490,3360,490C3200,490,3040,490,2880,490C2720,490,2560,490,2400,490C2240,490,2080,490,1920,490C1760,490,1600,490,1440,490C1280,490,1120,490,960,490C800,490,640,490,480,490C320,490,160,490,80,490L0,490Z"/></svg>