<?xml version="1.0" standalone="no"?>
<svg xmlns:xlink="http://www.w3.org/1999/xlink" id="wave" style="transform:rotate(0deg); transition: 0.3s" viewBox="0 0 1440 490" version="1.1" xmlns="http://www.w3.org/2000/svg"><defs><linearGradient id="sw-gradient-0" x1="0" x2="0" y1="1" y2="0"><stop stop-color="rgba(243, 106, 62, 1)" offset="0%"/><stop stop-color="rgba(255, 179, 11, 1)" offset="100%"/></linearGradient></defs><path style="transform:translate(0, 0px); opacity:1" fill="url(#sw-gradient-0)" d="M0,294L40,318.5C80,343,160,392,240,359.3C320,327,400,212,480,147C560,82,640,65,720,98C800,131,880,212,960,228.7C1040,245,1120,196,1200,163.3C1280,131,1360,114,1440,147C1520,180,1600,261,1680,253.2C1760,245,1840,147,1920,138.8C2000,131,2080,212,2160,228.7C2240,245,2320,196,2400,196C2480,196,2560,245,2640,269.5C2720,294,2800,294,2880,269.5C2960,245,3040,196,3120,196C3200,196,3280,245,3360,245C3440,245,3520,196,3600,204.2C3680,212,3760,278,3840,302.2C3920,327,4000,310,4080,285.8C4160,261,4240,229,4320,179.7C4400,131,4480,65,4560,73.5C4640,82,4720,163,4800,212.3C4880,261,4960,278,5040,236.8C5120,196,5200,98,5280,73.5C5360,49,5440,98,5520,171.5C5600,245,5680,343,5720,392L5760,441L5760,490L5720,490C5680,490,5600,490,5520,490C5440,490,5360,490,5280,490C5200,490,5120,490,5040,490C4960,490,4880,490,4800,490C4720,490,4640,490,4560,490C4480,490,4400,490,4320,490C4240,490,4160,490,4080,490C4000,490,3920,490,3840,490C3760,490,3680,490,3600,490C3520,490,3440,490,3360,490C3280,490,3200,490,3120,490C3040,490,2960,490,2880,490C2800,490,2720,490,2640,490C2560,490,2480,490,2400,490C2320,490,2240,490,2160,490C2080,490,2000,490,1920,490C1840,490,1760,490,1680,490C1600,490,1520,490,1440,490C1360,490,1280,490,1200,490C1120,490,1040,490,960,490C880,490,800,490,720,490C640,490,560,490,480,490C400,490,320,490,240,490C160,490,80,490,40,490L0,490Z"/></svg>