<?xml version="1.0" standalone="no"?>
<svg xmlns:xlink="http://www.w3.org/1999/xlink" id="wave" style="transform:rotate(0deg); transition: 0.3s" viewBox="0 0 1440 490" version="1.1" xmlns="http://www.w3.org/2000/svg"><defs><linearGradient id="sw-gradient-0" x1="0" x2="0" y1="1" y2="0"><stop stop-color="#249298" offset="0%"/><stop stop-color="#249298" offset="100%"/></linearGradient></defs><path style="transform:translate(0, 0px); opacity:1" fill="url(#sw-gradient-0)" d="M0,49L40,40.8C80,33,160,16,240,65.3C320,114,400,229,480,245C560,261,640,180,720,147C800,114,880,131,960,187.8C1040,245,1120,343,1200,367.5C1280,392,1360,343,1440,334.8C1520,327,1600,359,1680,367.5C1760,376,1840,359,1920,359.3C2000,359,2080,376,2160,367.5C2240,359,2320,327,2400,277.7C2480,229,2560,163,2640,187.8C2720,212,2800,327,2880,310.3C2960,294,3040,147,3120,98C3200,49,3280,98,3360,138.8C3440,180,3520,212,3600,212.3C3680,212,3760,180,3840,212.3C3920,245,4000,343,4080,383.8C4160,425,4240,408,4320,351.2C4400,294,4480,196,4560,130.7C4640,65,4720,33,4800,16.3C4880,0,4960,0,5040,16.3C5120,33,5200,65,5280,114.3C5360,163,5440,229,5520,253.2C5600,278,5680,261,5720,253.2L5760,245L5760,490L5720,490C5680,490,5600,490,5520,490C5440,490,5360,490,5280,490C5200,490,5120,490,5040,490C4960,490,4880,490,4800,490C4720,490,4640,490,4560,490C4480,490,4400,490,4320,490C4240,490,4160,490,4080,490C4000,490,3920,490,3840,490C3760,490,3680,490,3600,490C3520,490,3440,490,3360,490C3280,490,3200,490,3120,490C3040,490,2960,490,2880,490C2800,490,2720,490,2640,490C2560,490,2480,490,2400,490C2320,490,2240,490,2160,490C2080,490,2000,490,1920,490C1840,490,1760,490,1680,490C1600,490,1520,490,1440,490C1360,490,1280,490,1200,490C1120,490,1040,490,960,490C880,490,800,490,720,490C640,490,560,490,480,490C400,490,320,490,240,490C160,490,80,490,40,490L0,490Z"/></svg>